<svg viewBox="0 0 24 24" fill="none" stroke="currentColor" stroke-width="2">
    <path 
        d="M22.59 12.013L19.58 15.139V19.544L19.585 19.563L15.334 19.558L12.34 22.673H12.337L9.334 19.541H5.1L5.082 19.546L5.087 15.122L2.093 12.007L2.09 11.984L5.1 8.858V4.452L5.095 4.433L9.347 4.438L12.34 1.323H12.343L15.346 4.455H19.58L19.598 4.453L19.593 8.878L22.587 11.993" 
        style="" 
        transform="translate(-.344)"
    />
    <path 
        d="M17.229 12.005L15.793 13.496V15.597L15.796 15.606L13.768 15.604L12.34 17.09H12.339L10.906 15.596H8.887L8.879 15.598L8.881 13.488L7.453 12.002L7.452 11.991L8.887 10.5V8.399L8.885 8.39L10.912 8.392L12.34 6.907H12.342L13.774 8.401H15.793L15.802 8.398L15.799 10.508L17.227 11.994" 
        style="" 
        transform="translate(-.344)"
    />
</svg>